<mxfile host="app.diagrams.net" agent="Mozilla/5.0 (Windows NT 10.0; Win64; x64) AppleWebKit/537.36 (KHTML, like Gecko) Chrome/129.0.0.0 Safari/537.36" version="24.7.17">
  <diagram id="0a5VhPzvKAnQnY5ek9IO" name="Page-1">
    <mxGraphModel dx="1120" dy="472" grid="1" gridSize="10" guides="1" tooltips="1" connect="1" arrows="1" fold="1" page="1" pageScale="1" pageWidth="850" pageHeight="1100" math="0" shadow="0">
      <root>
        <mxCell id="0" />
        <mxCell id="1" parent="0" />
        <mxCell id="gAwwVqipfrl4vQJWM_Gv-26" value="" style="edgeStyle=orthogonalEdgeStyle;rounded=0;orthogonalLoop=1;jettySize=auto;html=1;" parent="1" source="gAwwVqipfrl4vQJWM_Gv-1" target="gAwwVqipfrl4vQJWM_Gv-4" edge="1">
          <mxGeometry relative="1" as="geometry" />
        </mxCell>
        <mxCell id="gAwwVqipfrl4vQJWM_Gv-1" value="&lt;b&gt;Adepeju&lt;/b&gt;" style="whiteSpace=wrap;html=1;aspect=fixed;fillColor=#0050ef;strokeColor=#001DBC;fontColor=#ffffff;" parent="1" vertex="1">
          <mxGeometry x="10" y="120" width="50" height="50" as="geometry" />
        </mxCell>
        <mxCell id="gAwwVqipfrl4vQJWM_Gv-19" value="" style="edgeStyle=orthogonalEdgeStyle;rounded=0;orthogonalLoop=1;jettySize=auto;html=1;startArrow=none;" parent="1" source="gAwwVqipfrl4vQJWM_Gv-20" target="gAwwVqipfrl4vQJWM_Gv-18" edge="1">
          <mxGeometry relative="1" as="geometry" />
        </mxCell>
        <mxCell id="gAwwVqipfrl4vQJWM_Gv-27" value="" style="edgeStyle=orthogonalEdgeStyle;rounded=0;orthogonalLoop=1;jettySize=auto;html=1;" parent="1" source="gAwwVqipfrl4vQJWM_Gv-4" target="gAwwVqipfrl4vQJWM_Gv-2" edge="1">
          <mxGeometry relative="1" as="geometry" />
        </mxCell>
        <mxCell id="gAwwVqipfrl4vQJWM_Gv-4" value="adepejuslug" style="shape=hexagon;perimeter=hexagonPerimeter2;whiteSpace=wrap;html=1;fixedSize=1;fillColor=#fad7ac;strokeColor=#b46504;" parent="1" vertex="1">
          <mxGeometry x="100" y="127.5" width="100" height="35" as="geometry" />
        </mxCell>
        <mxCell id="gAwwVqipfrl4vQJWM_Gv-16" value="License" style="shape=process;whiteSpace=wrap;html=1;backgroundOutline=1;gradientColor=#ffa500;fillColor=#ffcd28;strokeColor=#d79b00;" parent="1" vertex="1">
          <mxGeometry x="370" y="190" width="60" height="60" as="geometry" />
        </mxCell>
        <mxCell id="gAwwVqipfrl4vQJWM_Gv-18" value="Dockerfile" style="shape=process;whiteSpace=wrap;html=1;backgroundOutline=1;gradientColor=#ffa500;fillColor=#ffcd28;strokeColor=#d79b00;" parent="1" vertex="1">
          <mxGeometry x="370" y="40" width="60" height="60" as="geometry" />
        </mxCell>
        <mxCell id="gAwwVqipfrl4vQJWM_Gv-29" value="" style="edgeStyle=orthogonalEdgeStyle;rounded=0;orthogonalLoop=1;jettySize=auto;html=1;" parent="1" source="gAwwVqipfrl4vQJWM_Gv-2" target="gAwwVqipfrl4vQJWM_Gv-28" edge="1">
          <mxGeometry relative="1" as="geometry" />
        </mxCell>
        <mxCell id="gAwwVqipfrl4vQJWM_Gv-32" value="" style="edgeStyle=orthogonalEdgeStyle;rounded=0;orthogonalLoop=1;jettySize=auto;html=1;" parent="1" source="gAwwVqipfrl4vQJWM_Gv-2" target="gAwwVqipfrl4vQJWM_Gv-30" edge="1">
          <mxGeometry relative="1" as="geometry" />
        </mxCell>
        <mxCell id="gAwwVqipfrl4vQJWM_Gv-35" value="" style="edgeStyle=orthogonalEdgeStyle;rounded=0;orthogonalLoop=1;jettySize=auto;html=1;" parent="1" source="gAwwVqipfrl4vQJWM_Gv-2" target="gAwwVqipfrl4vQJWM_Gv-20" edge="1">
          <mxGeometry relative="1" as="geometry" />
        </mxCell>
        <mxCell id="gAwwVqipfrl4vQJWM_Gv-2" value="1. main" style="whiteSpace=wrap;html=1;fillColor=#b1ddf0;strokeColor=#10739e;" parent="1" vertex="1">
          <mxGeometry x="250" y="120" width="70" height="50" as="geometry" />
        </mxCell>
        <mxCell id="gAwwVqipfrl4vQJWM_Gv-28" value="&lt;span&gt;3. pejubranch&lt;/span&gt;" style="rounded=0;whiteSpace=wrap;html=1;fillColor=#b1ddf0;strokeColor=#10739e;" parent="1" vertex="1">
          <mxGeometry x="250" y="210" width="70" height="50" as="geometry" />
        </mxCell>
        <mxCell id="gAwwVqipfrl4vQJWM_Gv-30" value="&lt;span&gt;2. adebranch&lt;/span&gt;" style="rounded=0;whiteSpace=wrap;html=1;fillColor=#b1ddf0;strokeColor=#10739e;" parent="1" vertex="1">
          <mxGeometry x="250" y="30" width="70" height="50" as="geometry" />
        </mxCell>
        <mxCell id="gAwwVqipfrl4vQJWM_Gv-34" value="" style="edgeStyle=orthogonalEdgeStyle;rounded=0;orthogonalLoop=1;jettySize=auto;html=1;" parent="1" source="gAwwVqipfrl4vQJWM_Gv-20" target="gAwwVqipfrl4vQJWM_Gv-16" edge="1">
          <mxGeometry relative="1" as="geometry" />
        </mxCell>
        <mxCell id="gAwwVqipfrl4vQJWM_Gv-20" value="readme" style="shape=process;whiteSpace=wrap;html=1;backgroundOutline=1;gradientColor=#ffa500;fillColor=#ffcd28;strokeColor=#d79b00;" parent="1" vertex="1">
          <mxGeometry x="370" y="115" width="60" height="60" as="geometry" />
        </mxCell>
      </root>
    </mxGraphModel>
  </diagram>
</mxfile>
